<svg width="32" height="32" viewBox="0 0 32 32" fill="none" xmlns="http://www.w3.org/2000/svg">
<path d="M17.875 0.999512H2.81249C1.25619 0.999512 0 2.2557 0 3.81201V9.437C0 10.9932 1.25619 12.2495 2.81249 12.2495H3.81249V15.062C3.81249 15.437 4.03749 15.7745 4.39374 15.9244C4.50624 15.9807 4.63749 15.9995 4.74999 15.9995C4.99374 15.9995 5.23749 15.9057 5.40618 15.7182L8.89373 12.2495H12.25C12.3249 12.2495 12.4 12.2495 12.475 12.2119L19.975 10.3369C20.3875 10.2432 20.6875 9.86818 20.6875 9.437V3.81201C20.6875 2.2557 19.4313 0.999512 17.875 0.999512Z" fill="#73BCFF"/>
<path d="M20.6875 3.81201V9.437C20.6875 9.86818 20.3875 10.2432 19.975 10.3369L12.475 12.2119C12.4001 12.2495 12.3249 12.2495 12.25 12.2495H10.375V0.999512H17.875C19.4313 0.999512 20.6875 2.2557 20.6875 3.81201Z" fill="#3AAAFF"/>
<path d="M29.1875 8.49951H14.125C12.5687 8.49951 11.3125 9.7557 11.3125 11.312V16.937C11.3125 17.3682 11.6124 17.7432 12.025 17.8369C12.1937 17.8932 19.5812 19.7495 19.75 19.7495H23.6874L26.5375 23.162C26.7812 23.4619 27.1937 23.5744 27.5687 23.4432C27.9438 23.3119 28.1875 22.9557 28.1875 22.562V19.7495H29.1875C30.7438 19.7495 32 18.4932 32 16.937V11.312C32 9.7557 30.7438 8.49951 29.1875 8.49951Z" fill="#FF6C6C"/>
<path d="M32 11.312V16.937C32 18.4932 30.7438 19.7495 29.1875 19.7495H28.1875V22.562C28.1875 22.9557 27.9437 23.3119 27.5687 23.4432C27.1936 23.5744 26.7812 23.4619 26.5374 23.162L23.6874 19.7495H21.625V8.49951H29.1875C30.7438 8.49951 32 9.7557 32 11.312Z" fill="#FF4949"/>
<path d="M17.875 15.9995H2.81249C1.25619 15.9995 0 17.2557 0 18.812V24.437C0 25.9932 1.25619 27.2495 2.81249 27.2495H3.81249V30.062C3.81249 30.437 4.03749 30.7745 4.39374 30.9244C4.73124 31.0745 5.1438 30.9995 5.40618 30.7182L8.89373 27.2495H17.875C19.4313 27.2495 20.6875 25.9932 20.6875 24.437V18.812C20.6875 17.2557 19.4313 15.9995 17.875 15.9995Z" fill="#FFD400"/>
<path d="M20.6875 18.812V24.437C20.6875 25.9932 19.4313 27.2495 17.875 27.2495H10.375V15.9995H17.875C19.4313 15.9995 20.6875 17.2557 20.6875 18.812Z" fill="#FDBF00"/>
<path d="M25.375 15.0625C25.8928 15.0625 26.3125 14.6428 26.3125 14.125C26.3125 13.6072 25.8928 13.1875 25.375 13.1875C24.8572 13.1875 24.4375 13.6072 24.4375 14.125C24.4375 14.6428 24.8572 15.0625 25.375 15.0625Z" fill="#384949"/>
<path d="M22.5625 14.1245C22.5625 14.6494 22.1501 15.062 21.625 15.062C21.0999 15.062 20.6875 14.6494 20.6875 14.1245C20.6875 13.5994 21.0999 13.187 21.625 13.187C22.1501 13.187 22.5625 13.5994 22.5625 14.1245Z" fill="#3E5959"/>
<path d="M17.875 15.063C18.3928 15.063 18.8125 14.6433 18.8125 14.1255C18.8125 13.6077 18.3928 13.188 17.875 13.188C17.3572 13.188 16.9375 13.6077 16.9375 14.1255C16.9375 14.6433 17.3572 15.063 17.875 15.063Z" fill="#3E5959"/>
<path d="M14.125 6.62451C14.6428 6.62451 15.0625 6.20478 15.0625 5.68701C15.0625 5.16924 14.6428 4.74951 14.125 4.74951C13.6072 4.74951 13.1875 5.16924 13.1875 5.68701C13.1875 6.20478 13.6072 6.62451 14.125 6.62451Z" fill="#384949"/>
<path d="M11.3125 5.68701C11.3125 6.21195 10.9001 6.62451 10.375 6.62451C9.84994 6.62451 9.4375 6.21195 9.4375 5.68701C9.4375 5.16195 9.84994 4.74951 10.375 4.74951C10.9001 4.74951 11.3125 5.16195 11.3125 5.68701Z" fill="#3E5959"/>
<path d="M6.625 6.62451C7.14277 6.62451 7.5625 6.20478 7.5625 5.68701C7.5625 5.16924 7.14277 4.74951 6.625 4.74951C6.10723 4.74951 5.6875 5.16924 5.6875 5.68701C5.6875 6.20478 6.10723 6.62451 6.625 6.62451Z" fill="#3E5959"/>
<path d="M14.125 22.5625C14.6428 22.5625 15.0625 22.1428 15.0625 21.625C15.0625 21.1072 14.6428 20.6875 14.125 20.6875C13.6072 20.6875 13.1875 21.1072 13.1875 21.625C13.1875 22.1428 13.6072 22.5625 14.125 22.5625Z" fill="#384949"/>
<path d="M11.3125 21.6245C11.3125 22.1494 10.9001 22.562 10.375 22.562C9.84994 22.562 9.4375 22.1494 9.4375 21.6245C9.4375 21.0994 9.84994 20.687 10.375 20.687C10.9001 20.687 11.3125 21.0994 11.3125 21.6245Z" fill="#3E5959"/>
<path d="M6.625 22.563C7.14277 22.563 7.5625 22.1433 7.5625 21.6255C7.5625 21.1077 7.14277 20.688 6.625 20.688C6.10723 20.688 5.6875 21.1077 5.6875 21.6255C5.6875 22.1433 6.10723 22.563 6.625 22.563Z" fill="#3E5959"/>
<path d="M11.3125 21.6245C11.3125 22.1495 10.9001 22.562 10.375 22.562V20.687C10.9001 20.687 11.3125 21.0994 11.3125 21.6245Z" fill="#384949"/>
<path d="M10.375 6.62451V4.74951C10.9001 4.74951 11.3125 5.16195 11.3125 5.68701C11.3125 6.21195 10.9001 6.62451 10.375 6.62451Z" fill="#384949"/>
<path d="M22.5625 14.1245C22.5625 14.6494 22.1501 15.062 21.625 15.062V13.187C22.1501 13.187 22.5625 13.5994 22.5625 14.1245Z" fill="#384949"/>
</svg>
