<svg width="57" height="20" viewBox="0 0 57 20" fill="none" xmlns="http://www.w3.org/2000/svg">
<g clip-path="url(#clip0_387_10803)">
<path d="M24.1917 10.2871C24.1917 12.8734 22.1387 14.7791 19.6193 14.7791C17.0998 14.7791 15.0469 12.8734 15.0469 10.2871C15.0469 7.68269 17.0998 5.79517 19.6193 5.79517C22.1387 5.79517 24.1917 7.68269 24.1917 10.2871ZM22.1901 10.2871C22.1901 8.671 21.0003 7.56522 19.6193 7.56522C18.2383 7.56522 17.0485 8.671 17.0485 10.2871C17.0485 11.8871 18.2383 13.0091 19.6193 13.0091C21.0003 13.0091 22.1901 11.885 22.1901 10.2871Z" fill="#EA4335"/>
<path d="M34.0569 10.2871C34.0569 12.8734 32.004 14.7791 29.4845 14.7791C26.9651 14.7791 24.9121 12.8734 24.9121 10.2871C24.9121 7.68471 26.9651 5.79517 29.4845 5.79517C32.004 5.79517 34.0569 7.68269 34.0569 10.2871ZM32.0554 10.2871C32.0554 8.671 30.8655 7.56522 29.4845 7.56522C28.1036 7.56522 26.9137 8.671 26.9137 10.2871C26.9137 11.8871 28.1036 13.0091 29.4845 13.0091C30.8655 13.0091 32.0554 11.885 32.0554 10.2871Z" fill="#FBBC05"/>
<path d="M43.5075 6.06655V14.131C43.5075 17.4484 41.5223 18.8032 39.1755 18.8032C36.9663 18.8032 35.6367 17.3471 35.1353 16.1563L36.878 15.4414C37.1883 16.1725 37.9486 17.0352 39.1734 17.0352C40.6757 17.0352 41.6066 16.1218 41.6066 14.4024V13.7564H41.5367C41.0887 14.3012 40.2256 14.7771 39.1364 14.7771C36.8574 14.7771 34.7695 12.8207 34.7695 10.3033C34.7695 7.76774 36.8574 5.79517 39.1364 5.79517C40.2236 5.79517 41.0867 6.2711 41.5367 6.79968H41.6066V6.06857H43.5075V6.06655ZM41.7484 10.3033C41.7484 8.72163 40.6777 7.56522 39.3152 7.56522C37.9343 7.56522 36.7773 8.72163 36.7773 10.3033C36.7773 11.8688 37.9343 13.0091 39.3152 13.0091C40.6777 13.0091 41.7484 11.8688 41.7484 10.3033Z" fill="#4285F4"/>
<path d="M46.6437 1.3396V14.5036H44.6914V1.3396H46.6437Z" fill="#34A853"/>
<path d="M54.2535 11.7656L55.8071 12.7863C55.3057 13.5175 54.0973 14.7772 52.0094 14.7772C49.4201 14.7772 47.4863 12.8046 47.4863 10.2852C47.4863 7.6139 49.4365 5.79321 51.7854 5.79321C54.1508 5.79321 55.3077 7.64833 55.6859 8.65082L55.8934 9.16118L49.8003 11.6482C50.2668 12.5494 50.9922 13.0091 52.0094 13.0091C53.0287 13.0091 53.7356 12.515 54.2535 11.7656ZM49.4715 10.1495L53.5445 8.48273C53.3205 7.92174 52.6465 7.53086 51.8532 7.53086C50.836 7.53086 49.4201 8.41589 49.4715 10.1495Z" fill="#EA4335"/>
<path d="M7.65865 9.11883V7.21308H14.1751C14.2388 7.54522 14.2717 7.93811 14.2717 8.36341C14.2717 9.79323 13.8751 11.5613 12.5969 12.821C11.3536 14.0969 9.76504 14.7773 7.6607 14.7773C3.76028 14.7773 0.480469 11.6463 0.480469 7.80242C0.480469 3.95853 3.76028 0.827515 7.6607 0.827515C9.81847 0.827515 11.3556 1.66191 12.5105 2.74946L11.146 4.09422C10.3178 3.32868 9.1958 2.73326 7.65865 2.73326C4.81039 2.73326 2.58275 4.99545 2.58275 7.80242C2.58275 10.6094 4.81039 12.8716 7.65865 12.8716C9.50611 12.8716 10.5583 12.1405 11.2323 11.4762C11.779 10.9375 12.1386 10.1679 12.2804 9.1168L7.65865 9.11883Z" fill="#4285F4"/>
</g>
<defs>
<clipPath id="clip0_387_10803">
<rect width="55.8965" height="18.6322" fill="white" transform="translate(0.40625 0.732178)"/>
</clipPath>
</defs>
</svg>
