<svg width="32" height="32" viewBox="0 0 32 32" fill="none" xmlns="http://www.w3.org/2000/svg">
<g clip-path="url(#clip0)">
<path d="M22.0676 5.19556L18.908 2.93872C18.6611 1.27808 17.2258 0 15.4978 0H3.448C1.54663 0 0 1.54663 0 3.44775V15.498C0 17.3992 1.54663 18.9458 3.448 18.9458H13.9917C14.5095 18.9458 14.9292 18.5261 14.9292 18.0083C14.9292 17.7493 14.8245 17.5149 14.6548 17.3455L17.3452 14.6548C17.5149 14.8245 17.7493 14.9294 18.0081 14.9294C18.5259 14.9294 18.9456 14.5095 18.9456 13.9919V8.95117L22.0676 6.72119C22.314 6.54541 22.4602 6.26123 22.4602 5.9585C22.4602 5.65552 22.314 5.37134 22.0676 5.19556Z" fill="#00D8E0"/>
<path d="M22.0676 5.19556L18.908 2.93872C18.6611 1.27808 17.2258 0 15.4978 0H9.53979V18.9458H13.9917C14.5095 18.9458 14.9292 18.5261 14.9292 18.0083C14.9292 17.7493 14.8245 17.5149 14.6548 17.3455L17.3452 14.6548C17.5149 14.8245 17.7493 14.9294 18.0081 14.9294C18.5259 14.9294 18.9456 14.5095 18.9456 13.9919V8.95117L22.0676 6.72119C22.314 6.54541 22.4602 6.26123 22.4602 5.9585C22.4602 5.65552 22.314 5.37134 22.0676 5.19556Z" fill="#00ACB3"/>
<path d="M12.3533 12.1162C11.604 12.1162 10.9028 11.9092 10.3025 11.5493C11.0266 10.7678 11.5081 9.75879 11.6245 8.64209H12.3533C12.645 8.64209 12.8818 8.40552 12.8818 8.11353C12.8818 7.82153 12.645 7.58472 12.3533 7.58472H10.0015V6.30103C10.0015 6.00879 9.76465 5.77222 9.47266 5.77222C9.18091 5.77222 8.94409 6.00879 8.94409 6.30103V7.58472H6.59229C6.30054 7.58472 6.06372 7.82153 6.06372 8.11353C6.06372 8.40552 6.30054 8.64209 6.59229 8.64209H7.32104C7.43726 9.75879 7.9187 10.7678 8.64282 11.5493C8.04272 11.9087 7.34155 12.1162 6.59229 12.1162C6.30029 12.1162 6.06348 12.3528 6.06348 12.6448C6.06348 12.9368 6.30029 13.1736 6.59229 13.1736C7.66187 13.1736 8.65454 12.8389 9.47266 12.2703C10.2908 12.8391 11.2834 13.1736 12.353 13.1736C12.645 13.1736 12.8818 12.9368 12.8818 12.6448C12.8818 12.3528 12.645 12.1162 12.3533 12.1162ZM10.5591 8.64209C10.4441 9.50879 10.0513 10.2883 9.47266 10.8884C8.89429 10.2883 8.50146 9.50879 8.38647 8.64209H10.5591Z" fill="#FEF4F5"/>
<path d="M28.5522 13.0542H16.5022C14.6011 13.0542 13.0544 14.6008 13.0544 16.502V23.0488L9.93237 25.2788C9.68604 25.4546 9.53979 25.7388 9.53979 26.0415C9.53979 26.3445 9.68604 26.6287 9.93237 26.8044L13.092 29.0613C13.3389 30.7219 14.7742 32 16.5022 32H28.5522C30.4534 32 32 30.4534 32 28.552V16.502C32 14.6008 30.4534 13.0542 28.5522 13.0542Z" fill="#54E360"/>
<path d="M28.5522 13.0542H22.5271V32H28.5522C30.4534 32 32 30.4534 32 28.552V16.502C32 14.6008 30.4534 13.0542 28.5522 13.0542Z" fill="#00AB5E"/>
<path d="M19.7302 25.6855C19.7302 25.6653 19.7405 25.6252 19.7505 25.585L21.6887 19.2686C21.7791 18.9673 22.1504 18.8264 22.522 18.8264C22.9038 18.8264 23.2754 18.9673 23.3657 19.2686L25.3037 25.585C25.3137 25.6252 25.324 25.6553 25.324 25.6855C25.324 25.9966 24.8521 26.2275 24.5005 26.2275C24.2795 26.2275 24.1089 26.1575 24.0586 25.9666L23.677 24.6309H21.3772L20.9956 25.9666C20.9456 26.1575 20.7749 26.2275 20.554 26.2275C20.2024 26.2275 19.7302 26.0066 19.7302 25.6855ZM23.396 23.6064L22.522 20.5237L21.6484 23.6064H23.396Z" fill="#FEF4F5"/>
<path d="M12.3533 8.64209C12.645 8.64209 12.8818 8.40552 12.8818 8.11353C12.8818 7.82153 12.645 7.58472 12.3533 7.58472H10.0015V6.30103C10.0015 6.03174 9.80005 5.81006 9.53979 5.7771V8.64209H10.5591C10.4485 9.47461 10.0813 10.2263 9.53979 10.8162V12.3149C10.345 12.856 11.3123 13.1736 12.3533 13.1736C12.645 13.1736 12.8818 12.9368 12.8818 12.6448C12.8818 12.3528 12.645 12.1162 12.3533 12.1162C11.604 12.1162 10.9028 11.9089 10.3025 11.5493C11.0266 10.7678 11.5081 9.75879 11.6245 8.64209H12.3533Z" fill="#D5EDED"/>
<path d="M25.3037 25.585L23.3657 19.2686C23.2756 18.9685 22.907 18.8276 22.5271 18.8267V20.5415L23.3958 23.6064H22.5271V24.6309H23.677L24.0586 25.9666C24.1089 26.1575 24.2795 26.2275 24.5005 26.2275C24.8521 26.2275 25.324 25.9968 25.324 25.6855C25.324 25.6553 25.314 25.6252 25.3037 25.585Z" fill="#D5EDED"/>
</g>
<defs>
<clipPath id="clip0">
<rect width="32" height="32" fill="white"/>
</clipPath>
</defs>
</svg>
