<svg width="32" height="32" viewBox="0 0 32 32" fill="none" xmlns="http://www.w3.org/2000/svg">
<g clip-path="url(#clip0)">
<path d="M3.76462 3.76465H9.41168V9.41172H3.76462V3.76465Z" fill="#FFB01C"/>
<path d="M22.5883 3.76465H28.2353V9.41172H22.5883V3.76465Z" fill="#EF9B14"/>
<path d="M20.997 8.26664L19.1598 8.67448L18.1139 3.96734C18.0869 3.84813 17.9834 3.76468 17.861 3.76468H16V1.88232H17.861C18.8725 1.88232 19.7321 2.57189 19.951 3.5595L20.997 8.26664Z" fill="#2F374F"/>
<path d="M15.9999 1.88232V3.76468H14.1389C14.0166 3.76468 13.913 3.84813 13.8861 3.96734L12.8401 8.67448L11.0029 8.26664L12.0489 3.55887C12.2679 2.57189 13.1275 1.88232 14.1389 1.88232H15.9999Z" fill="#1766A0"/>
<path d="M16 7.52948L17.364 19.7648L16 30.1177H3.67183C1.64704 30.1177 -1.52588e-05 28.4707 -1.52588e-05 26.4459V11.2013C-1.52588e-05 9.17654 1.64704 7.52948 3.67183 7.52948H16Z" fill="#64E1DC"/>
<path d="M32 11.2013V26.4459C32 28.4707 30.3529 30.1177 28.3281 30.1177H16V7.52948H28.3281C30.3529 7.52948 32 9.17654 32 11.2013Z" fill="#00B5BC"/>
<path d="M5.64709 7.52948H7.52945V30.1177H5.64709V7.52948Z" fill="#1766A0"/>
<path d="M24.4706 7.52948H26.3529V30.1177H24.4706V7.52948Z" fill="#2F374F"/>
<path d="M22.4803 16.8314L16 18.506V12.6739L21.0673 11.3644L22.4803 16.8314Z" fill="#D5E8FE"/>
<path d="M15.9999 12.6738V18.5059L15.1899 18.7155L13.7775 13.2479L15.9999 12.6738Z" fill="#EDF5FF"/>
<path d="M12.549 26.353C14.2816 26.353 15.6862 24.9484 15.6862 23.2158C15.6862 21.4831 14.2816 20.0785 12.549 20.0785C10.8163 20.0785 9.41173 21.4831 9.41173 23.2158C9.41173 24.9484 10.8163 26.353 12.549 26.353Z" fill="#FFDB00"/>
</g>
<defs>
<clipPath id="clip0">
<rect width="32" height="32" fill="white"/>
</clipPath>
</defs>
</svg>
