<svg width="13" height="11" viewBox="0 0 13 11" fill="none" xmlns="http://www.w3.org/2000/svg">
<path d="M6.16007 0.386928C6.28099 0.0448859 6.76471 0.0448859 6.88562 0.386928L8.02541 3.61113C8.07936 3.76374 8.22305 3.86627 8.3849 3.86765L11.9288 3.89788C12.3031 3.90107 12.4529 4.38269 12.1465 4.59765L9.33402 6.57038C9.19482 6.66802 9.13621 6.84545 9.18985 7.00679L10.2491 10.1927C10.365 10.5413 9.97312 10.8386 9.66866 10.6329L6.7382 8.65384C6.60808 8.56596 6.43762 8.56596 6.3075 8.65384L3.37703 10.6329C3.07258 10.8386 2.68065 10.5413 2.79656 10.1927L3.85584 7.00679C3.90949 6.84545 3.85088 6.66802 3.71168 6.57038L0.899209 4.59765C0.592749 4.38269 0.742563 3.90107 1.11688 3.89788L4.66079 3.86765C4.82265 3.86627 4.96634 3.76374 5.02029 3.61113L6.16007 0.386928Z" fill="#FDAC42"/>
</svg>
