<svg width="32" height="32" viewBox="0 0 32 32" fill="none" xmlns="http://www.w3.org/2000/svg">
<path d="M21.625 0H16H10.375C8.82169 0 7.5625 1.32169 7.5625 2.875C7.5625 4.42831 8.82169 5.6875 10.375 5.6875L12.25 6.625H16H19.306L21.625 5.6875C23.1783 5.6875 24.4375 4.42831 24.4375 2.875C24.4375 1.32169 23.1783 0 21.625 0Z" fill="#665166"/>
<path d="M21.625 5.6875C23.1783 5.6875 24.4375 4.42831 24.4375 2.875C24.4375 1.32169 23.1783 0 21.625 0H16V6.625H19.306L21.625 5.6875Z" fill="#4D354D"/>
<path d="M24.8986 5.9245L20.5886 8.91931L19.1705 5.6875H16H12.8299L10.7449 9.01819L7.10144 5.9245C5.2025 6.52375 3.8125 8.28075 3.8125 10.375C3.8125 14.4729 4.41856 17.1362 5.62619 22.4426C6.00156 24.0923 6.43825 26.0104 6.93725 28.3221L16 28.3161L25.1416 28.3102C25.6451 25.4235 26.1816 23.1256 26.6549 21.0986C27.5109 17.4301 28.1875 14.5333 28.1875 10.375C28.1875 8.28075 26.7975 6.52375 24.8986 5.9245Z" fill="#4D354D"/>
<path d="M26.6549 21.0986C27.5109 17.4301 28.1875 14.5333 28.1875 10.375C28.1875 8.28075 26.7975 6.52375 24.8986 5.9245L20.5886 8.91931L19.1705 5.6875H16V28.3161L25.1416 28.3102C25.6451 25.4235 26.1816 23.1256 26.6549 21.0986Z" fill="#331E33"/>
<path d="M18.2448 16.5182L12.8298 5.6875H8.49996C8.00971 5.6875 7.54583 5.78419 7.10139 5.9245L13.2863 18.2943L18.2448 16.5182Z" fill="#E64552"/>
<path d="M23.5 5.6875H19.1705L16 12.0284L13.2863 17.4557L13.7057 18.7136L16 18.5215L18.7136 18.2943L24.8985 5.9245C24.4541 5.78419 23.9902 5.6875 23.5 5.6875Z" fill="#FF7733"/>
<path d="M24.8986 5.9245C24.4541 5.78419 23.9903 5.6875 23.5 5.6875H19.1705L16 12.0284V18.5215L18.7136 18.2943L24.8986 5.9245Z" fill="#E64552"/>
<path d="M26.3125 24.4375C25.635 24.4375 24.8769 24.6709 23.8287 24.9941C22.0224 25.5499 19.5495 26.3116 16.0092 26.3125C16.0064 26.3125 16.0037 26.3125 16.0009 26.3125C16.0006 26.3125 16.0004 26.3125 16 26.3125C12.4556 26.3123 9.98031 25.5508 8.17225 24.9941C7.12306 24.6709 6.365 24.4375 5.6875 24.4375C3.61931 24.4375 1.9375 26.1193 1.9375 28.1875C1.9375 30.2557 3.61931 32 5.6875 32H13.1875L15.0625 30.125H16H16.9375L18.8125 32H26.3125C28.3807 32 30.0625 30.2557 30.0625 28.1875C30.0625 26.1193 28.3807 24.4375 26.3125 24.4375Z" fill="#665166"/>
<path d="M18.8125 32H26.3125C28.3807 32 30.0625 30.2557 30.0625 28.1875C30.0625 26.1193 28.3807 24.4375 26.3125 24.4375C25.635 24.4375 24.8769 24.6709 23.8287 24.9941C22.0224 25.5499 19.5495 26.3116 16.0092 26.3125C16.0064 26.3125 16.0037 26.3125 16.0009 26.3125C16.0006 26.3125 16.0004 26.3125 16 26.3125V30.125H16.9375L18.8125 32Z" fill="#4D354D"/>
<path d="M16 21.625H13.1875V32H16H18.8125V21.625H16Z" fill="#FF7733"/>
<path d="M16 21.625H18.8125V32H16V21.625Z" fill="#E64552"/>
<path d="M17.875 16.9375H16H14.125C13.6072 16.9375 13.1875 17.3572 13.1875 17.875V21.625C13.1875 22.1427 13.6072 22.5625 14.125 22.5625H16H17.875C18.3927 22.5625 18.8125 22.1427 18.8125 21.625V17.875C18.8125 17.3572 18.3927 16.9375 17.875 16.9375Z" fill="#FFF2F2"/>
<path d="M18.8125 21.625V17.875C18.8125 17.3572 18.3928 16.9375 17.875 16.9375H16V22.5625H17.875C18.3928 22.5625 18.8125 22.1427 18.8125 21.625Z" fill="#E6CFCF"/>
</svg>
