<svg width="32" height="32" viewBox="0 0 32 32" fill="none" xmlns="http://www.w3.org/2000/svg">
<path d="M28.2025 7H15.7975L12 16L15.7975 25H28.2025C30.2965 25 32 23.2056 32 21V11C32 8.7944 30.2965 7 28.2025 7Z" fill="#4482D9"/>
<path d="M3.75 7C1.68225 7 0 8.7944 0 11V21C0 23.2056 1.68225 25 3.75 25H16V7H3.75Z" fill="#69A8FF"/>
<path d="M26.75 13H16.375L15.125 13.9375L16.375 14.875H26.75V13Z" fill="#E6F1FF"/>
<path d="M22.0625 18.625V16.75H16.375L14.5 17.6875L16.375 18.625H22.0625Z" fill="#E6F1FF"/>
<path d="M16.375 16.75H10.6875V18.625H16.375V16.75Z" fill="white"/>
<path d="M16.375 13H6V14.875H16.375V13Z" fill="white"/>
</svg>
