<svg width="32" height="32" viewBox="0 0 32 32" fill="none" xmlns="http://www.w3.org/2000/svg">
<path d="M16 0C7.2063 0 0 7.2063 0 16C0 24.7937 7.2063 32 16 32C24.7937 32 32 24.7937 32 16C32 7.2063 24.7937 0 16 0Z" fill="#00DD7B"/>
<path d="M32 16C32 24.7937 24.7937 32 16 32V0C24.7937 0 32 7.2063 32 16Z" fill="#00CC71"/>
<path d="M27.0999 11.7437L26.3501 13.4685C23.0688 12.0623 19.5625 11.1624 16 10.825C12.8313 10.4876 9.62476 10.5999 6.51245 11.1436L6.19385 9.28739C9.4187 8.72489 12.7188 8.61234 16 8.91239C19.825 9.26883 23.5938 10.2249 27.0999 11.7437Z" fill="#ECECF1"/>
<path d="M25.5437 17.2L24.7561 18.9063C21.9812 17.6314 19.0188 16.8062 16 16.45C12.9624 16.0938 9.84985 16.2064 6.8501 16.8062L6.4563 14.9688L6.49365 14.95C9.625 14.3314 12.8313 14.2188 16 14.575C19.3 14.9312 22.5437 15.8126 25.5437 17.2Z" fill="#ECECF1"/>
<path d="M22.675 22.075L21.925 23.8001C20.0125 22.9749 18.0249 22.3938 16 22.1126C13.5061 21.7376 10.9563 21.7749 8.4436 22.2251L8.1062 20.3687C10.7312 19.8999 13.3938 19.8438 16 20.2188C18.2874 20.5188 20.5374 21.1563 22.675 22.075Z" fill="#ECECF1"/>
<path d="M16 20.2188C18.2874 20.5188 20.5374 21.1562 22.675 22.075L21.925 23.8C20.0125 22.9749 18.0249 22.3938 16 22.1125V20.2188Z" fill="#E2E2E7"/>
<path d="M16 14.575C19.3 14.9312 22.5437 15.8125 25.5437 17.2L24.7561 18.9062C21.9812 17.6313 19.0188 16.8062 16 16.45V14.575Z" fill="#E2E2E7"/>
<path d="M27.0999 11.7437L26.3501 13.4685C23.0688 12.0623 19.5625 11.1624 16 10.825V8.91235C19.825 9.2688 23.5938 10.2249 27.0999 11.7437Z" fill="#E2E2E7"/>
</svg>
