<svg width="32" height="32" viewBox="0 0 32 32" fill="none" xmlns="http://www.w3.org/2000/svg">
<path d="M16 0C9.79362 0 4.75 5.04375 4.75 11.25C4.75 13.35 5.33138 15.3938 6.43756 17.1563L15.2374 31.5572C15.3875 31.8009 15.6125 31.951 15.8751 31.9885C16.2312 32.0447 16.6251 31.8948 16.8313 31.5385L25.6563 17.0063C26.7062 15.2813 27.25 13.2751 27.25 11.25C27.25 5.04375 22.2064 0 16 0ZM16 16.875C12.8501 16.875 10.375 14.325 10.375 11.25C10.375 8.15619 12.9062 5.625 16 5.625C19.0938 5.625 21.625 8.15619 21.625 11.25C21.625 14.3062 19.1874 16.875 16 16.875Z" fill="#FD003A"/>
<path d="M16 0V5.625C19.0938 5.625 21.625 8.15619 21.625 11.25C21.625 14.3062 19.1874 16.875 16 16.875V31.9994C16.3199 32.0069 16.6489 31.8535 16.8312 31.5385L25.6562 17.0063C26.7062 15.2813 27.25 13.2751 27.25 11.25C27.25 5.04375 22.2064 0 16 0Z" fill="#E50027"/>
</svg>
