<svg width="105" height="44" viewBox="0 0 105 44" fill="none" xmlns="http://www.w3.org/2000/svg">
<path fill-rule="evenodd" clip-rule="evenodd" d="M104.846 22.7256C104.846 15.3053 101.235 9.4502 94.3339 9.4502C87.4033 9.4502 83.21 15.3053 83.21 22.6676C83.21 31.3922 88.1604 35.798 95.2657 35.798C98.731 35.798 101.352 35.0154 103.332 33.914V28.1169C101.352 29.1024 99.0805 29.7111 96.1976 29.7111C93.3729 29.7111 90.8686 28.7256 90.5483 25.3053H104.788C104.788 24.9285 104.846 23.4212 104.846 22.7256ZM90.4609 19.9719C90.4609 16.6966 92.4702 15.3343 94.3048 15.3343C96.0811 15.3343 97.9739 16.6966 97.9739 19.9719H90.4609Z" fill="#6772E5"/>
<path fill-rule="evenodd" clip-rule="evenodd" d="M71.9697 9.4502C69.116 9.4502 67.2814 10.7835 66.2622 11.7111L65.8836 9.91396H59.4772V43.7111L66.7572 42.1748L66.7863 33.9719C67.8347 34.7256 69.378 35.798 71.9406 35.798C77.1531 35.798 81.8997 31.6241 81.8997 22.4357C81.8706 14.0299 77.0657 9.4502 71.9697 9.4502ZM70.2225 29.4212C68.5044 29.4212 67.4852 28.8125 66.7863 28.0589L66.7572 17.3053C67.5143 16.4647 68.5627 15.885 70.2225 15.885C72.8724 15.885 74.707 18.8415 74.707 22.6386C74.707 26.5227 72.9016 29.4212 70.2225 29.4212Z" fill="#6772E5"/>
<path fill-rule="evenodd" clip-rule="evenodd" d="M56.7688 6.1741V0.290039L49.4596 1.82627V7.73931L56.7688 6.1741Z" fill="#6772E5"/>
<path d="M56.7688 9.94189H49.4596V35.3042H56.7688V9.94189Z" fill="#6772E5"/>
<path fill-rule="evenodd" clip-rule="evenodd" d="M41.6264 12.0876L41.1605 9.94268H34.8706V35.305H42.1506V18.1166C43.8687 15.8847 46.7807 16.2905 47.6834 16.6093V9.94268C46.7516 9.59485 43.3445 8.95717 41.6264 12.0876Z" fill="#6772E5"/>
<path fill-rule="evenodd" clip-rule="evenodd" d="M27.0664 3.65283L19.9611 5.16008L19.932 28.3775C19.932 32.6673 23.1643 35.8268 27.4741 35.8268C29.8619 35.8268 31.6091 35.392 32.5701 34.8702V28.9862C31.6383 29.363 27.0373 30.6963 27.0373 26.4065V16.1166H32.5701V9.94269H27.0373L27.0664 3.65283Z" fill="#6772E5"/>
<path fill-rule="evenodd" clip-rule="evenodd" d="M7.38096 17.3053C7.38096 16.1748 8.31281 15.7401 9.85617 15.7401C12.0693 15.7401 14.8648 16.4067 17.078 17.5951V10.7835C14.661 9.82701 12.2731 9.4502 9.85617 9.4502C3.94479 9.4502 0.0135803 12.5227 0.0135803 17.6531C0.0135803 25.6531 11.0792 24.3777 11.0792 27.827C11.0792 29.1603 9.91441 29.5951 8.28369 29.5951C5.86672 29.5951 2.77999 28.6096 0.333901 27.2763V34.1748C3.04207 35.3343 5.77936 35.827 8.28369 35.827C14.3407 35.827 18.5048 32.8415 18.5048 27.6531C18.4757 19.0154 7.38096 20.5516 7.38096 17.3053Z" fill="#6772E5"/>
</svg>
