<svg width="32" height="32" viewBox="0 0 32 32" fill="none" xmlns="http://www.w3.org/2000/svg">
<path d="M16 0L8 16L16 32C24.8366 32 32 24.8366 32 16C32 7.16344 24.8366 0 16 0Z" fill="#28ABFA"/>
<path d="M0 16C0 24.8366 7.16344 32 16 32V0C7.16344 0 0 7.16344 0 16Z" fill="#14CFFF"/>
<path d="M16 3.75L9.875 16L16 28.25C22.7655 28.25 28.25 22.7655 28.25 16C28.25 9.2345 22.7655 3.75 16 3.75Z" fill="#C4F3FF"/>
<path d="M3.75 16C3.75 22.7655 9.2345 28.25 16 28.25V3.75C9.2345 3.75 3.75 9.2345 3.75 16Z" fill="white"/>
<path d="M18.6516 17.3258L16 14.6741H14.75L16 17.3258L17.3258 18.6516L18.6516 17.3258Z" fill="#340D66"/>
<path d="M10.6746 9.34879L9.34879 10.6746L16 17.3258V14.6742L10.6746 9.34879Z" fill="#373E9F"/>
<path d="M21.3476 9.32663L16 14.6741L14.75 17.3257H16L22.6733 10.6524L21.3476 9.32663Z" fill="#373E9F"/>
<path d="M13.3484 17.3258L14.6742 18.6516L16 17.3258V14.6741L13.3484 17.3258Z" fill="#3857BC"/>
<path d="M16.9375 5.625H16L15.375 6.5625L16 7.5H16.9375V5.625Z" fill="#340D66"/>
<path d="M15.0625 5.625H16V7.5H15.0625V5.625Z" fill="#373E9F"/>
<path d="M16.9375 24.5H16L15.375 25.4375L16 26.375H16.9375V24.5Z" fill="#340D66"/>
<path d="M15.0625 24.5H16V26.375H15.0625V24.5Z" fill="#373E9F"/>
<path d="M5.625 16.9375V15.0625H7.5V16.9375H5.625Z" fill="#373E9F"/>
<path d="M24.5 16.9375V15.0625H26.375V16.9375H24.5Z" fill="#340D66"/>
</svg>
