<svg width="90" height="19" viewBox="0 0 90 19" fill="none" xmlns="http://www.w3.org/2000/svg">
<path d="M88.5666 12.594C88.2919 12.594 88.0674 12.8185 88.0674 13.0932C88.0674 13.3679 88.2893 13.5924 88.5666 13.5924C88.8413 13.5924 89.0659 13.3679 89.0659 13.0932C89.0632 12.8159 88.8413 12.594 88.5666 12.594ZM88.5666 13.5106C88.3342 13.5106 88.1467 13.323 88.1467 13.0906C88.1467 12.8581 88.3342 12.6706 88.5666 12.6706C88.7991 12.6706 88.9866 12.8581 88.9866 13.0906C88.9866 13.323 88.7964 13.5106 88.5666 13.5106ZM88.7278 13.0061C88.7278 12.9162 88.6644 12.8608 88.5693 12.8608H88.4108V13.3151H88.4874V13.1513H88.5719L88.6538 13.3151H88.7383L88.6485 13.1328C88.6961 13.1117 88.7278 13.0668 88.7278 13.0061ZM88.5666 13.08H88.49V12.9295H88.5666C88.6195 12.9295 88.6512 12.9559 88.6512 13.0034C88.6485 13.0536 88.6168 13.08 88.5666 13.08ZM28.5601 7.55427V6.34981H26.7138V13.5158H28.5601V9.21833C28.5601 8.43913 29.0593 8.05877 29.8385 8.05877H30.8502V6.34981H29.9864C29.3076 6.34981 28.7212 6.70111 28.5601 7.55427ZM32.5776 3.51562C31.9463 3.51562 31.4603 4.01484 31.4603 4.64613C31.4603 5.26421 31.9437 5.76343 32.5776 5.76343C33.2115 5.76343 33.6949 5.26421 33.6949 4.64613C33.6949 4.0122 33.2089 3.51562 32.5776 3.51562ZM31.6558 13.5132H33.4994V6.34981H31.6558V13.5132ZM42.2767 9.9315C42.2767 11.9759 40.6179 13.6347 38.5735 13.6347C37.7468 13.6347 36.9993 13.3653 36.3997 12.9083V15.6184H34.556V6.34981H36.3997V6.95732C36.9993 6.50037 37.7494 6.23095 38.5735 6.23095C40.6179 6.22831 42.2767 7.88708 42.2767 9.9315ZM40.4225 9.9315C40.4225 8.81949 39.5218 7.91878 38.4097 7.91878C37.2977 7.91878 36.397 8.81949 36.397 9.9315C36.397 11.0435 37.2977 11.9442 38.4097 11.9442C39.5218 11.9442 40.4225 11.0435 40.4225 9.9315ZM74.3006 9.30286L73.2256 9.00702C72.5177 8.82213 72.243 8.60554 72.243 8.2331C72.243 7.8686 72.6313 7.61502 73.1833 7.61502C73.7116 7.61502 74.1237 7.96104 74.1237 8.40215V8.44441H75.8221V8.40215C75.8221 7.1026 74.7629 6.22831 73.1833 6.22831C71.6196 6.22831 70.4838 7.09996 70.4838 8.30442C70.4838 9.23946 71.1046 9.94471 72.1875 10.2379L73.2177 10.5179C73.9995 10.7345 74.2901 10.9748 74.2901 11.4054C74.2901 11.8597 73.8701 12.1635 73.2441 12.1635C72.5917 12.1635 72.1532 11.7514 72.1532 11.1386V11.0963H70.3518V11.1386C70.3518 12.6072 71.5351 13.6347 73.2309 13.6347C74.8632 13.6347 76.0492 12.631 76.0492 11.2495C76.0466 10.576 75.7428 9.6885 74.3006 9.30286ZM48.8114 6.34981H50.6551V13.5158H48.8114V12.9083C48.2119 13.3653 47.4617 13.6347 46.6376 13.6347C44.5932 13.6347 42.9344 11.9759 42.9344 9.9315C42.9344 7.88708 44.5932 6.22831 46.6376 6.22831C47.4643 6.22831 48.2119 6.49773 48.8114 6.95468V6.34981ZM48.8114 9.9315C48.8114 8.81949 47.9107 7.91878 46.7987 7.91878C45.6867 7.91878 44.786 8.81949 44.786 9.9315C44.786 11.0435 45.6867 11.9442 46.7987 11.9442C47.9107 11.9442 48.8114 11.0435 48.8114 9.9315ZM57.3061 3.79825H59.1498V13.5158H57.3061V12.9083C56.7065 13.3653 55.9563 13.6347 55.1322 13.6347C53.0878 13.6347 51.429 11.9759 51.429 9.9315C51.429 7.88708 53.0878 6.22831 55.1322 6.22831C55.959 6.22831 56.7065 6.49773 57.3061 6.95468V3.79825ZM57.3061 9.9315C57.3061 8.81949 56.4054 7.91878 55.2934 7.91878C54.1813 7.91878 53.2806 8.81949 53.2806 9.9315C53.2806 11.0435 54.1813 11.9442 55.2934 11.9442C56.4054 11.9442 57.3061 11.0435 57.3061 9.9315ZM67.7051 13.5132H69.5488V6.34981H67.7051V13.5132ZM68.6243 3.51562C67.993 3.51562 67.507 4.01484 67.507 4.64613C67.507 5.26421 67.9904 5.76343 68.6243 5.76343C69.2583 5.76343 69.7416 5.26421 69.7416 4.64613C69.7416 4.0122 69.2583 3.51562 68.6243 3.51562ZM84.0103 9.9315C84.0103 11.9759 82.3515 13.6347 80.3071 13.6347C78.2627 13.6347 76.6039 11.9759 76.6039 9.9315C76.6039 7.88708 78.2627 6.22831 80.3071 6.22831C82.3515 6.22831 84.0103 7.88708 84.0103 9.9315ZM82.3198 9.9315C82.3198 8.81949 81.4191 7.91878 80.3071 7.91878C79.1951 7.91878 78.2944 8.81949 78.2944 9.9315C78.2944 11.0435 79.1951 11.9442 80.3071 11.9442C81.4165 11.9442 82.3198 11.0435 82.3198 9.9315ZM27.6171 3.79825H20.5488V5.44118H23.1664V13.5132H25.0022V5.44118H27.6198L27.6171 3.79825ZM63.3601 11.5507L61.7198 6.34717H59.7837L62.2428 13.5132H64.4589L66.9312 6.34717H64.9951L63.3601 11.5507ZM86.7098 7.55427V6.34981H84.8634V13.5158H86.7098V9.21833C86.7098 8.43913 87.209 8.05877 87.9882 8.05877H88.9998V6.34981H88.1361C87.4599 6.34981 86.8735 6.70111 86.7098 7.55427Z" fill="black"/>
<path d="M9.8905 18.8435C15.094 18.8435 19.3123 14.6252 19.3123 9.42175C19.3123 4.21826 15.094 0 9.8905 0C4.68701 0 0.46875 4.21826 0.46875 9.42175C0.46875 14.6252 4.68701 18.8435 9.8905 18.8435Z" fill="#34E0A1"/>
<path d="M15.7138 7.58563L16.8496 6.34947H14.3271C13.0645 5.48839 11.5404 4.98389 9.89222 4.98389C8.24665 4.98389 6.72522 5.48839 5.46529 6.34947H2.9375L4.07329 7.58563C3.37597 8.2222 2.94014 9.13875 2.94014 10.1557C2.94014 12.076 4.49591 13.6317 6.41618 13.6317C7.32745 13.6317 8.15948 13.2804 8.77756 12.7046L9.89222 13.917L11.0069 12.7046C11.6276 13.2804 12.457 13.6291 13.3683 13.6291C15.2885 13.6291 16.8469 12.0733 16.8469 10.153C16.8469 9.13611 16.4111 8.21956 15.7138 7.58563ZM6.41882 12.5065C5.11927 12.5065 4.068 11.4526 4.068 10.1557C4.068 8.85877 5.12191 7.80487 6.41882 7.80487C7.71573 7.80487 8.76964 8.85877 8.76964 10.1557C8.76964 11.4526 7.71837 12.5065 6.41882 12.5065ZM9.89486 10.0844C9.89486 8.53652 8.76964 7.20792 7.28255 6.64002C8.08552 6.30457 8.96774 6.11703 9.89222 6.11703C10.8167 6.11703 11.6989 6.30457 12.5045 6.64002C11.0201 7.21056 9.89486 8.53652 9.89486 10.0844ZM13.3709 12.5065C12.0713 12.5065 11.0201 11.4526 11.0201 10.1557C11.0201 8.85877 12.074 7.80487 13.3709 7.80487C14.6678 7.80487 15.7217 8.85877 15.7217 10.1557C15.7217 11.4526 14.6704 12.5065 13.3709 12.5065ZM13.3709 8.91952C12.6894 8.91952 12.1374 9.47157 12.1374 10.153C12.1374 10.8345 12.6894 11.3866 13.3709 11.3866C14.0524 11.3866 14.6044 10.8345 14.6044 10.153C14.6018 9.47157 14.0524 8.91952 13.3709 8.91952ZM7.6497 10.153C7.6497 10.8345 7.09765 11.3866 6.41618 11.3866C5.73471 11.3866 5.18266 10.8345 5.18266 10.153C5.18266 9.47157 5.73471 8.91952 6.41618 8.91952C7.10029 8.91952 7.6497 9.47157 7.6497 10.153Z" fill="black"/>
</svg>
