<svg width="78" height="19" viewBox="0 0 78 19" fill="none" xmlns="http://www.w3.org/2000/svg">
<path d="M21.087 6.6698H28.8428V8.11363H25.789V16.2527H24.1152V8.11363H21.0742L21.087 6.6698ZM28.5106 9.31469H29.9416V10.6563H29.9672C30.0183 10.4646 30.1077 10.2858 30.2355 10.1069C30.3633 9.928 30.5166 9.7619 30.7083 9.62135C30.8872 9.46802 31.0916 9.35303 31.3216 9.26358C31.5388 9.17414 31.7688 9.12303 31.9988 9.12303C32.1777 9.12303 32.3054 9.13581 32.3693 9.13581C32.4332 9.14859 32.5099 9.16137 32.5738 9.16137V10.6308C32.4715 10.6052 32.3565 10.5924 32.2415 10.5796C32.1266 10.5669 32.0243 10.5541 31.9093 10.5541C31.6538 10.5541 31.411 10.6052 31.181 10.7074C30.951 10.8096 30.7594 10.963 30.5805 11.1546C30.4144 11.3591 30.2738 11.6018 30.1716 11.8957C30.0694 12.1896 30.0183 12.5346 30.0183 12.9179V16.2144H28.485L28.5106 9.31469ZM39.6013 16.2527H38.0935V15.2817H38.068C37.8763 15.6394 37.5952 15.9078 37.2247 16.125C36.8541 16.3422 36.4708 16.4444 36.0875 16.4444C35.1803 16.4444 34.5159 16.2272 34.107 15.7672C33.6982 15.32 33.4937 14.63 33.4937 13.7229V9.31469H35.027V13.5695C35.027 14.1828 35.142 14.6173 35.3848 14.86C35.6147 15.1156 35.947 15.2433 36.3686 15.2433C36.688 15.2433 36.9564 15.1922 37.1736 15.09C37.3908 14.9878 37.5697 14.86 37.6974 14.6939C37.838 14.5278 37.9274 14.3234 37.9913 14.0934C38.0552 13.8634 38.0808 13.6079 38.0808 13.3395V9.31469H39.614V16.2527H39.6013ZM42.2078 14.0295C42.2589 14.4767 42.425 14.7834 42.7189 14.975C43.0128 15.1539 43.3705 15.2433 43.7794 15.2433C43.92 15.2433 44.0861 15.2306 44.265 15.205C44.4438 15.1795 44.6227 15.1411 44.776 15.0772C44.9421 15.0134 45.0699 14.9239 45.1721 14.7961C45.2744 14.6684 45.3255 14.515 45.3127 14.3234C45.2999 14.1317 45.236 13.9656 45.0955 13.8378C44.9549 13.7101 44.7888 13.6206 44.5844 13.5312C44.3799 13.4545 44.1372 13.3906 43.8689 13.3395C43.6005 13.2884 43.3322 13.2245 43.0511 13.1607C42.77 13.0968 42.4889 13.0201 42.2206 12.9307C41.9523 12.8412 41.7223 12.7262 41.5051 12.5601C41.3006 12.4068 41.1217 12.2151 41.0068 11.9724C40.879 11.7296 40.8151 11.4485 40.8151 11.0907C40.8151 10.7074 40.9045 10.4008 41.0962 10.1452C41.2751 9.88967 41.5178 9.68523 41.7989 9.53191C42.08 9.37858 42.3995 9.26358 42.7445 9.1997C43.0894 9.13581 43.4217 9.11026 43.7283 9.11026C44.0861 9.11026 44.4311 9.14859 44.7505 9.22525C45.0699 9.30192 45.3766 9.41691 45.6321 9.59579C45.9004 9.7619 46.1177 9.99189 46.2838 10.2602C46.4626 10.5285 46.5649 10.8607 46.616 11.2441H45.0188C44.9421 10.8735 44.776 10.6308 44.5205 10.503C44.2522 10.3752 43.9583 10.3113 43.6133 10.3113C43.5111 10.3113 43.3705 10.3241 43.23 10.3369C43.0767 10.3624 42.9489 10.388 42.8083 10.4391C42.6806 10.4902 42.5656 10.5669 42.4761 10.6563C42.3867 10.7457 42.3356 10.8735 42.3356 11.0268C42.3356 11.2185 42.3995 11.3591 42.5272 11.4741C42.655 11.589 42.8211 11.6785 43.0383 11.7679C43.2428 11.8446 43.4855 11.9085 43.7539 11.9596C44.0222 12.0107 44.3033 12.0746 44.5844 12.1385C44.8655 12.2024 45.1338 12.279 45.4021 12.3685C45.6705 12.4579 45.9132 12.5729 46.1177 12.739C46.3221 12.8923 46.501 13.084 46.6287 13.314C46.7565 13.544 46.8204 13.8378 46.8204 14.1701C46.8204 14.5789 46.731 14.9239 46.5393 15.2178C46.3476 15.4989 46.1049 15.7417 45.811 15.9205C45.5171 16.0994 45.1721 16.2272 44.8144 16.3166C44.4438 16.3933 44.0861 16.4444 43.7283 16.4444C43.2939 16.4444 42.885 16.3933 42.5145 16.2911C42.1439 16.1889 41.8117 16.0355 41.5434 15.8439C41.2751 15.6394 41.0579 15.3967 40.9045 15.09C40.7512 14.7961 40.6618 14.4384 40.649 14.0167H42.195V14.0295H42.2078ZM47.2548 9.31469H48.4176V7.21922H49.9508V9.30192H51.3308V10.4391H49.9508V14.1445C49.9508 14.3106 49.9636 14.4384 49.9764 14.5662C49.9892 14.6811 50.0275 14.7834 50.0658 14.86C50.1169 14.9367 50.1936 15.0006 50.283 15.0389C50.3853 15.0772 50.513 15.1028 50.6919 15.1028C50.7941 15.1028 50.9091 15.1028 51.0113 15.09C51.1136 15.0772 51.2286 15.0645 51.3308 15.0389V16.2272C51.1647 16.2527 50.9986 16.2655 50.8325 16.2783C50.6664 16.3039 50.513 16.3039 50.3342 16.3039C49.9253 16.3039 49.6059 16.2655 49.3631 16.1889C49.1203 16.1122 48.9287 15.9972 48.7881 15.8567C48.6476 15.7033 48.5581 15.5244 48.507 15.3072C48.4559 15.09 48.4303 14.8217 48.4176 14.5406V10.4519H47.2548V9.28914V9.31469ZM52.4041 9.31469H53.8479V10.2602H53.8735C54.0907 9.85134 54.3845 9.57024 54.7679 9.39136C55.1512 9.21248 55.5601 9.12303 56.02 9.12303C56.5695 9.12303 57.0422 9.21248 57.4511 9.41691C57.86 9.60857 58.1922 9.86412 58.4605 10.2091C58.7288 10.5413 58.9333 10.9374 59.061 11.3846C59.1888 11.8318 59.2655 12.3174 59.2655 12.8157C59.2655 13.2884 59.2016 13.7356 59.0866 14.1701C58.9588 14.6045 58.7799 15.0006 58.5372 15.3328C58.2944 15.665 57.9877 15.9333 57.6044 16.1378C57.2211 16.3422 56.7867 16.4444 56.2756 16.4444C56.0584 16.4444 55.8284 16.4189 55.6112 16.3805C55.3939 16.3422 55.1767 16.2783 54.9723 16.1889C54.7679 16.0994 54.5762 15.9844 54.4101 15.8439C54.2312 15.7033 54.0907 15.5372 53.9757 15.3583H53.9501V18.821H52.4168V9.31469H52.4041ZM57.7577 12.7901C57.7577 12.4835 57.7194 12.1768 57.63 11.8829C57.5533 11.589 57.4255 11.3335 57.2594 11.1035C57.0933 10.8735 56.8889 10.6946 56.6589 10.5541C56.4161 10.4135 56.135 10.3497 55.8284 10.3497C55.1895 10.3497 54.704 10.5669 54.3718 11.0141C54.0523 11.4613 53.8862 12.0618 53.8862 12.8029C53.8862 13.1607 53.9246 13.4801 54.014 13.774C54.1034 14.0678 54.2184 14.3234 54.3973 14.5406C54.5634 14.7578 54.7679 14.9239 55.0106 15.0517C55.2534 15.1795 55.5217 15.2433 55.8412 15.2433C56.1989 15.2433 56.48 15.1667 56.7228 15.0261C56.9656 14.8856 57.1572 14.6939 57.3233 14.4767C57.4766 14.2467 57.5916 13.9912 57.6555 13.6973C57.7194 13.3906 57.7577 13.0968 57.7577 12.7901ZM60.4537 6.6698H61.987V8.11363H60.4537V6.6698ZM60.4537 9.31469H61.987V16.2527H60.4537V9.31469ZM63.3542 6.6698H64.8875V16.2527H63.3542V6.6698ZM69.5639 16.4444C69.0145 16.4444 68.5162 16.355 68.0818 16.1633C67.6473 15.9717 67.2896 15.7289 66.9829 15.4094C66.6891 15.09 66.4591 14.6939 66.3057 14.2467C66.1524 13.7995 66.063 13.3012 66.063 12.7773C66.063 12.2535 66.1396 11.7679 66.3057 11.3207C66.4591 10.8735 66.6891 10.4902 66.9829 10.158C67.2768 9.83856 67.6473 9.58302 68.0818 9.40413C68.5162 9.22525 69.0145 9.12303 69.5639 9.12303C70.1134 9.12303 70.6117 9.21248 71.0461 9.40413C71.4805 9.58302 71.8383 9.83856 72.1449 10.158C72.4388 10.4774 72.6688 10.8735 72.8221 11.3207C72.9755 11.7679 73.0649 12.2535 73.0649 12.7773C73.0649 13.314 72.9882 13.7995 72.8221 14.2467C72.656 14.6939 72.4388 15.0772 72.1449 15.4094C71.8511 15.7289 71.4805 15.9844 71.0461 16.1633C70.6117 16.3422 70.1261 16.4444 69.5639 16.4444ZM69.5639 15.2306C69.8961 15.2306 70.2028 15.1539 70.4456 15.0134C70.7011 14.8728 70.8928 14.6811 71.0589 14.4512C71.225 14.2212 71.34 13.9528 71.4166 13.6717C71.4933 13.3779 71.5316 13.084 71.5316 12.7773C71.5316 12.4835 71.4933 12.1896 71.4166 11.8957C71.34 11.6018 71.225 11.3463 71.0589 11.1163C70.8928 10.8863 70.6883 10.7074 70.4456 10.5669C70.19 10.4263 69.8961 10.3497 69.5639 10.3497C69.2317 10.3497 68.9251 10.4263 68.6823 10.5669C68.4268 10.7074 68.2351 10.8991 68.069 11.1163C67.9029 11.3463 67.7879 11.6018 67.7112 11.8957C67.6346 12.1896 67.5962 12.4835 67.5962 12.7773C67.5962 13.084 67.6346 13.3779 67.7112 13.6717C67.7879 13.9656 67.9029 14.2212 68.069 14.4512C68.2351 14.6811 68.4395 14.8728 68.6823 15.0134C68.9379 15.1667 69.2317 15.2306 69.5639 15.2306ZM73.5249 9.31469H74.6876V7.21922H76.2209V9.30192H77.6008V10.4391H76.2209V14.1445C76.2209 14.3106 76.2337 14.4384 76.2464 14.5662C76.2592 14.6811 76.2976 14.7834 76.3359 14.86C76.387 14.9367 76.4637 15.0006 76.5531 15.0389C76.6553 15.0772 76.7831 15.1028 76.962 15.1028C77.0642 15.1028 77.1792 15.1028 77.2814 15.09C77.3836 15.0772 77.4986 15.0645 77.6008 15.0389V16.2272C77.4347 16.2527 77.2686 16.2655 77.1025 16.2783C76.9364 16.3039 76.7831 16.3039 76.6042 16.3039C76.1953 16.3039 75.8759 16.2655 75.6331 16.1889C75.3904 16.1122 75.1987 15.9972 75.0582 15.8567C74.9176 15.7033 74.8282 15.5244 74.7771 15.3072C74.726 15.09 74.7004 14.8217 74.6876 14.5406V10.4519H73.5249V9.28914V9.31469Z" fill="black"/>
<path d="M19.2984 6.66973H12.2837L10.1244 0L7.95222 6.66973L0.9375 6.65695L6.61061 10.784L4.43847 17.4537L10.1116 13.3267L15.7847 17.4537L13.6253 10.784L19.2984 6.66973Z" fill="#00B67A"/>
<path d="M14.1115 12.2919L13.626 10.7842L10.125 13.3269L14.1115 12.2919Z" fill="#005128"/>
</svg>
