<svg width="32" height="32" viewBox="0 0 32 32" fill="none" xmlns="http://www.w3.org/2000/svg">
<g clip-path="url(#clip0)">
<path d="M23.4666 21.3334V20.2667C23.4666 19.6776 22.9891 19.2 22.3999 19.2V18.8667H9.60001V19.2C9.01089 19.2 8.53333 19.6776 8.53333 20.2667V21.3334C8.53333 21.7565 8.78001 22.1214 9.13707 22.2938C9.17745 22.3133 9.20232 22.3551 9.20232 22.3999V22.4002C9.20232 22.4451 9.17751 22.4868 9.13707 22.5063C8.77995 22.6787 8.53333 23.0436 8.53333 23.4668V24.5334C8.53333 24.9566 8.78001 25.3215 9.13707 25.4939C9.17745 25.5134 9.20232 25.5551 9.20232 25.6V25.6002C9.20232 25.6451 9.17751 25.6868 9.13707 25.7063C8.77995 25.8787 8.53333 26.2436 8.53333 26.6668V27.7334C8.53333 28.1566 8.78001 28.5215 9.13707 28.6939C9.17745 28.7134 9.20232 28.7551 9.20232 28.8V28.8002C9.20232 28.8451 9.17751 28.8868 9.13707 28.9063C8.77995 29.0787 8.53333 29.4436 8.53333 29.8668C8.53333 31.0449 9.48845 32.0001 10.6666 32.0001H21.3333C22.5116 32.0001 23.4666 31.0449 23.4666 29.8668C23.4666 29.4436 23.22 29.0787 22.8629 28.9063C22.8225 28.8868 22.7976 28.8451 22.7976 28.8002V28.8C22.7976 28.7551 22.8224 28.7134 22.8629 28.6939C23.22 28.5215 23.4666 28.1566 23.4666 27.7334V26.6668C23.4666 26.2436 23.22 25.8787 22.8629 25.7063C22.8225 25.6868 22.7976 25.6451 22.7976 25.6002V25.6C22.7976 25.5551 22.8224 25.5134 22.8629 25.4939C23.22 25.3215 23.4666 24.9566 23.4666 24.5334V23.4668C23.4666 23.0436 23.22 22.6787 22.8629 22.5063C22.8225 22.4868 22.7976 22.4451 22.7976 22.4002V22.3999C22.7976 22.3551 22.8224 22.3133 22.8629 22.2938C23.22 22.1214 23.4666 21.7565 23.4666 21.3334Z" fill="#D8E2F3"/>
<path d="M22.863 22.2937C23.2201 22.1213 23.4667 21.7564 23.4667 21.3333V20.2666C23.4667 19.6775 22.9892 19.1999 22.4 19.1999H20.8667C21.4559 19.1999 21.9334 19.6775 21.9334 20.2666V21.3333C21.9334 21.7564 21.6868 22.1213 21.3297 22.2937C21.2893 22.3132 21.2644 22.355 21.2644 22.3998V22.4001C21.2644 22.445 21.2892 22.4867 21.3297 22.5062C21.6868 22.6786 21.9334 23.0435 21.9334 23.4666V24.5333C21.9334 24.9565 21.6868 25.3214 21.3297 25.4938C21.2893 25.5133 21.2644 25.555 21.2644 25.5999V25.6001C21.2644 25.645 21.2892 25.6868 21.3297 25.7063C21.6868 25.8786 21.9334 26.2436 21.9334 26.6667V27.7334C21.9334 28.1565 21.6868 28.5215 21.3297 28.6938C21.2893 28.7133 21.2644 28.7551 21.2644 28.8V28.8002C21.2644 28.8451 21.2892 28.8868 21.3297 28.9063C21.6868 29.0787 21.9334 29.4436 21.9334 29.8668C21.9334 31.045 20.9783 32.0001 19.8001 32.0001H21.3334C22.5117 32.0001 23.4667 31.045 23.4667 29.8668C23.4667 29.4436 23.2201 29.0787 22.863 28.9063C22.8226 28.8868 22.7977 28.8451 22.7977 28.8002V28.8C22.7977 28.7551 22.8225 28.7133 22.863 28.6938C23.2201 28.5215 23.4667 28.1565 23.4667 27.7334V26.6667C23.4667 26.2436 23.2201 25.8786 22.863 25.7063C22.8226 25.6868 22.7977 25.645 22.7977 25.6001V25.5999C22.7977 25.555 22.8225 25.5133 22.863 25.4938C23.2201 25.3214 23.4667 24.9565 23.4667 24.5333V23.4666C23.4667 23.0435 23.2201 22.6786 22.863 22.5062C22.8226 22.4867 22.7977 22.445 22.7977 22.4001V22.3998C22.7977 22.355 22.8225 22.3132 22.863 22.2937Z" fill="#BACDEA"/>
<path d="M20.2667 21.8999H8.69678C8.80334 22.069 8.9559 22.2062 9.13709 22.2937C9.17746 22.3132 9.20234 22.355 9.20234 22.3998V22.4001C9.20234 22.445 9.17753 22.4867 9.13709 22.5062C8.9559 22.5937 8.80334 22.7309 8.69678 22.9H20.2667C20.5428 22.9 20.7667 22.6762 20.7667 22.4C20.7667 22.1237 20.5428 21.8999 20.2667 21.8999Z" fill="#BACDEA"/>
<path d="M22.863 25.4938C23.0442 25.4063 23.1967 25.2691 23.3033 25.1H11.7334C11.4572 25.1 11.2334 25.3238 11.2334 25.6C11.2334 25.8762 11.4572 26.1 11.7334 26.1H23.3032C23.1967 25.9309 23.0442 25.7937 22.863 25.7062C22.8226 25.6867 22.7977 25.645 22.7977 25.6001V25.5998C22.7977 25.5551 22.8226 25.5133 22.863 25.4938Z" fill="#BACDEA"/>
<path d="M20.2667 28.2999H8.69678C8.80334 28.469 8.9559 28.6062 9.13709 28.6937C9.17746 28.7132 9.20234 28.7549 9.20234 28.7998V28.8001C9.20234 28.8449 9.17753 28.8867 9.13709 28.9062C8.9559 28.9936 8.80334 29.1308 8.69678 29.2999H20.2667C20.5428 29.2999 20.7667 29.0761 20.7667 28.7999C20.7667 28.5237 20.5428 28.2999 20.2667 28.2999Z" fill="#BACDEA"/>
<path d="M22.9334 19.2H9.06673C8.77217 19.2 8.53342 18.9613 8.53342 18.6667V12.2667C8.53342 11.9721 8.77223 11.7334 9.06673 11.7334V11.4H22.9334V11.7333C23.228 11.7333 23.4667 11.9722 23.4667 12.2667V18.6667C23.4667 18.9613 23.2279 19.2 22.9334 19.2Z" fill="#62A4FB"/>
<path d="M22.9333 11.7333V11.4H21.4V11.7333C21.6946 11.7333 21.9333 11.9721 21.9333 12.2667V18.6667C21.9333 18.9612 21.6946 19.2 21.4 19.2H22.9333C23.2279 19.2 23.4666 18.9612 23.4666 18.6667V12.2667C23.4666 11.9722 23.2279 11.7333 22.9333 11.7333Z" fill="#5392F9"/>
<path d="M19.2 3.2H12.8V1C12.8 0.447688 13.2477 0 13.8 0H18.2C18.7523 0 19.2 0.447688 19.2 1V3.2Z" fill="#EDF6FF"/>
<path d="M13.8667 2.81299H18.1334V5.72036H13.8667V2.81299Z" fill="#BACDEA"/>
<path d="M17.6334 16H14.3667C14.0906 16 13.8667 15.7761 13.8667 15.5V14.3667C13.8667 14.0906 14.0906 13.8667 14.3667 13.8667H17.6334C17.9095 13.8667 18.1334 14.0906 18.1334 14.3667V15.5C18.1334 15.7761 17.9096 16 17.6334 16Z" fill="#EDF6FF"/>
<path d="M13.8667 5.33325C10.9212 5.33325 8.53342 7.72106 8.53342 10.6666V11.1999C8.53342 11.4944 8.77223 11.7332 9.06673 11.7332H22.9334C23.228 11.7332 23.4667 11.4944 23.4667 11.1999V10.6666C23.4667 7.72106 21.0789 5.33325 18.1334 5.33325H13.8667Z" fill="#D8E2F3"/>
<path d="M19.2 3.2H12.8V1C12.8 0.447688 13.2477 0 13.8 0H18.2C18.7523 0 19.2 0.447688 19.2 1V3.2Z" fill="#EDF6FF"/>
<path d="M18.1333 0H16.6C17.1891 0 17.6667 0.477562 17.6667 1.06669V3.2H19.2V1.06669C19.2 0.477562 18.7224 0 18.1333 0Z" fill="#D8E2F3"/>
<path d="M19.2 3.69995H12.8C12.5238 3.69995 12.3 3.47614 12.3 3.19995C12.3 2.92376 12.5238 2.69995 12.8 2.69995H19.2C19.4762 2.69995 19.7 2.92376 19.7 3.19995C19.7 3.47608 19.4762 3.69995 19.2 3.69995Z" fill="#D8E2F3"/>
<path d="M18.1333 5.33325H16.6C19.5455 5.33325 21.9333 7.72106 21.9333 10.6666V11.1999C21.9333 11.4944 21.6945 11.7332 21.4 11.7332H22.9333C23.2278 11.7332 23.4666 11.4944 23.4666 11.1999V10.6666C23.4666 7.72106 21.0788 5.33325 18.1333 5.33325Z" fill="#BACDEA"/>
<path d="M17.6001 13.8667H16.0667C16.3613 13.8667 16.6001 14.1055 16.6001 14.4V15.4667C16.6001 15.7613 16.3613 16 16.0667 16H17.6001C17.8946 16 18.1334 15.7613 18.1334 15.4667V14.4C18.1334 14.1054 17.8946 13.8667 17.6001 13.8667Z" fill="#D8E2F3"/>
<path d="M10.6667 16.5667H8.53342V17.5667H10.6667C10.9429 17.5667 11.1667 17.3428 11.1667 17.0667C11.1667 16.7905 10.9429 16.5667 10.6667 16.5667Z" fill="#5392F9"/>
<path d="M23.4666 17.5667V16.5667H21.3333C21.0571 16.5667 20.8333 16.7905 20.8333 17.0667C20.8333 17.3428 21.0571 17.5667 21.3333 17.5667H23.4666Z" fill="#5392F9"/>
</g>
<defs>
<clipPath id="clip0">
<rect width="32" height="32" fill="white"/>
</clipPath>
</defs>
</svg>
